<?xml version="1.0" encoding="UTF-8"?>
<svg id="Camada_2" data-name="Camada 2" xmlns="http://www.w3.org/2000/svg" viewBox="0 0 910.52 743.11">
  <defs>
    <style>
      .cls-1 {
        fill: #010101;
      }

      .cls-2 {
        fill: #0c0c0c;
      }

      .cls-3 {
        fill: #030303;
      }

      .cls-4 {
        fill: #242424;
      }
    </style>
  </defs>
  <g id="Camada_1-2" data-name="Camada 1">
    <g>
      <path class="cls-1" d="M751.91,464.29c2.29-.77,4.13-.93,2.69,1.49-8.62,4.53-16.37,8.2-25.73,11.74l-223,84.16c-26.26,9.91-35.22,5.37-62.44-4.08l-224.29-77.87-108.68-41.41c9.42-3.04,17.58,1.76,26.3,3.09,26.41,6.88,51.13,15.04,77.43,23.43,88.89,28.35,176.82,58.2,264.11,91.16l227.87-78.62c15.84-5.47,30.37-9.88,45.73-13.08Z"/>
      <path class="cls-2" d="M219.67,376.91c-1.32-1.64-.42-3.65.06-5.48,3.18-.66,5.67-1.82,9-.94-2.31,3.47-5.98,4.54-9.05,6.42Z"/>
      <path class="cls-4" d="M754.6,465.77c-.27-1.23-1.6-1.46-2.69-1.49,2.1-1.7,4.17-1.55,6.81-.9-.9,1.91-2.47,2.33-4.12,2.39Z"/>
      <path class="cls-2" d="M211.84,372.72l1.32,2.72c-2.55.34-3.6-1.28-5.3-1.55l3.98-1.17Z"/>
      <path d="M897.59,543.46c-7.91-4.52-16.89-4.03-25.72-6.21-3.21-21.73-4.72-46.56.64-67.83l21.97-8.86c8.53-3.44,11.38-12.85,9.95-21.48-1.46-8.79-8.01-14.36-17.21-17.07-11.55-3.4-91.36-27.77-95.3-21.86-2.74,4.12,45.49,23.34,50.77,25.52,13.89,5.72,28.21,8.35,42.48,16.46l-208.37,77.07-177.58,65.12c-11.31,4.15-20.57,4.09-32,.08l-147.4-51.62-231.95-80.98c-11.13-3.89-20.69-3.75-30.5,3.14-30.71,21.56-25.25,70.22.59,98.14,6.09,6.58,13.24,10.33,21.41,13.16l56.33,19.55,81.87,27.82c-.06,6.83.92,10.87-.26,17.42l-146.27-53.05c-28.5-10.33-67.41-69.75-38.35-118.94,5.75-9.74,15.29-18.52,26.49-22.44l124.98-43.7c12.6-4.41,24.02-8.95,35.51-15.99,2.22-1.72,3.09-3.99.06-5.48-2.4-.12-4.75.38-7.88,1.29,1.15,1.56-.18,1.95-3.98,1.17-47.05,13.79-94.55,25.75-142.33,39.35-32.12,9.14-55.48,31.66-61.33,65.54-5,28.98,2.71,58.79,20.31,83.48-8.14.05-19.96-9.72-23.75-4.44-8.24,11.49,52.94,37.58,61.6,40.61l155,54.19.34,31.61c.04,4.13,4.08,5.47,6.71,5.85,3.93.57,5.75-1.94,8.72-4.1,8.28-6.01,16.34-11.81,25.74-16.68,3.53-1.83,11.66,1.48,14.04,4.6l28.1,36.98c2.73,3.59,6.42,4.84,10.37,3.68,10.07-2.97,4.58-19.34,6.34-29.18l60.52,21.56,90.3,31.3c16.72,5.8,32.72,7,49.49.56l94.15-36.12,275.25-106.59c10.2-3.95,18.47-10.26,21.86-20.88,3.67-11.51-1.11-25.67-11.71-31.73ZM301.53,684.57l-27.99-36.29c-2.69-2.97-6.62-4.08-10.28-2.31l-29.57,18.85-.35-80.82c0-2.07,1.56-3.45,2.69-4.24,1.34-.93,2.81-.1,4.66.56l61.01,21.66-.19,82.59ZM301.62,584.38l-60.17-20.73c-5.23-1.8-10.83-1.66-15.58,1.44-10.3,6.74-7.38,18.88-8.24,30.53l-123.23-41.83-.81-79.26,58.52,20.88,221.54,77.73,81.88,28.52c16.19,5.64,33,8.31,49.91,2.07l346.06-127.57c-1.78,24.33-3.31,50.8,4.24,73.73l-215.77,83.71-142.81,53.98c-4.98,1.88-9.67.22-13.54-1.12l-29.84-10.35-135.38-47.14-.14-23.82c-.06-10.69-7.07-17.46-16.66-20.77ZM885.8,574.72l-373.25,143.53c-11.79,4.53-22.02,5.04-34.06.97l-35.84-12.12-124.17-43.48c-.59-6.27-.3-11.35-.15-16.9l153.08,53.09c10.31,3.57,21.43,7.11,32.21,3.02l200.82-76.2,175.94-68.37c4.35-1.69,9.19,3.05,10.15,5.74,1.17,3.28.1,8.86-4.72,10.72Z"/>
      <path class="cls-3" d="M254.93,545.58c-26.5-6.18-51.79-16.13-78.33-24.36-24.56-7.61-48.05-14.95-72.04-23.74-2.34-.86-3.97-2.51-4.68-3.8-.83-1.5-.27-7.47,1.74-7.03,19.53,4.29,36.53,12.67,54.98,19.56l98.33,39.36Z"/>
      <path class="cls-3" d="M193.11,542.56c-15.96-3.86-31.19-10.07-47.17-15.21-14.79-4.75-28.94-9.34-43.39-14.82-1.41-.54-2.39-1.57-2.82-2.37-.5-.93-.16-4.66,1.05-4.39,11.76,2.68,22,7.91,33.11,12.21l59.22,24.58Z"/>
      <path class="cls-3" d="M163.89,549.14c-10.45-2.45-20.42-6.4-30.88-9.66-9.68-3.02-18.94-5.93-28.4-9.42-.92-.34-1.56-1-1.84-1.51-.33-.59-.11-2.96.69-2.79,7.7,1.7,14.4,5.03,21.67,7.76l38.76,15.62Z"/>
      <path class="cls-3" d="M163.89,564.7c-10.45-2.45-20.42-6.4-30.88-9.66-9.68-3.02-18.94-5.93-28.4-9.42-.92-.34-1.56-1-1.84-1.51-.33-.59-.11-2.96.69-2.79,7.7,1.7,14.4,5.03,21.67,7.76l38.76,15.62Z"/>
      <path d="M804.61,125l-138.78-52.37L488.38,6.31c-23.05-8.62-43.96-8.29-66.88.29l-142.73,53.44L107.91,124.2c-11.39,4.28-16.12,18.16-10.26,28.11,3.06,5.19,8.6,8.01,14.19,10.04l126.45,45.84,109.36,39.35,83.56,30.56c19.9,7.28,39.73,7.01,59.63-.48l136.9-51.54,105.63-39.27-.15,78.13c-9.63,4.09-15.42,12.49-16.72,21.52-1.4,9.72,3.08,18.11,10.54,24.19-4.96,3.86-6.2,7.9-7.18,13.02l-21.25,110.67c-1.39,7.24,4.96,12.59,10.79,11.29,9.85-2.2,20.08-1.47,28.99,2.9,6.33,3.1,10.53-1.14,15.89-2.66,7.51-2.14,25.25,1.6,30.05-2.98,3.07-2.93,3.87-6.58,3.09-11.23-3.64-21.66-8.39-42.42-12.75-64.03l-9.81-48.65c-.69-3.43-3.24-5.66-5.37-8.87,8.29-6.35,12.09-15.59,10.11-25.44-1.76-8.76-7.79-16.01-17-19.95l-.12-84.5,51.37-19.82c7.78-3,12.92-9.67,12.67-17.81-.2-6.57-4.34-14.73-11.9-17.58ZM765.54,423.44l-12.66-50.34-7.79,50.34-10.12-47.41-13.87,47.41,11.72-94.83,10.03,41.45,10.03-41.45,12.66,94.83ZM752.66,287.5c1.14,4.59-2.29,10.12-7.19,11.74-4.5,1.49-10.25-1.63-12.1-6.56-1.72-4.56.65-10.27,6.82-12.36,5.78-1.96,11.18,2,12.47,7.18ZM731.97,164.9l-56.54-9.1-196.55-29.02c-4.06-10.22-13.21-16.17-23.48-15.38-10.04.76-18.97,7.89-19.99,18.82-.85,9.07,5.17,16.54,11.98,19.76,8.72,4.12,18.07,3.04,26.07-4.6l95.55,13.67,128.36,19.2-216.7,82.08c-13.29,5.03-26.59,5.05-39.75.3l-77.41-27.97-244.88-90.64c4.36-3.4,8.83-3.68,13.9-5.57L430.64,25.11c15.78-5.89,29.61-7.21,45.47-1.33l123.86,45.98,192.96,72.09-60.95,23.05ZM458,136.83c-3.33.24-7.46-1.34-7.41-5.52.04-3.45,3.43-5.31,6.09-5.36,2.33-.04,6.42.96,7.16,4.89.8,4.22-3.4,5.82-5.84,6Z"/>
      <g>
        <polygon points="700.31 547.32 483.63 625.57 414.81 605.12 484.81 636.19 700.31 547.32"/>
        <polygon points="418.74 629.6 486.38 658.31 619.3 600.9 486.38 648.09 418.74 629.6"/>
        <polygon points="439.19 655.21 487.17 678.81 565.82 648.92 487.17 670.16 439.19 655.21"/>
      </g>
      <path d="M669.81,217.71l-80.2,31.18-98.88,37.8c-19.57,7.48-38.48,8.08-58.31.69l-112.86-42.09-78.06-29.29c-1.78,1.93-2.8,3.42-2.79,5.82l.23,146.67c.04,28.11,41.47,47.06,63.82,55.51,90.76,34.32,228.43,33.87,317.74-4.82,19.27-8.35,51.82-26.22,51.86-50.47l.23-143.05c0-2.99-.73-6.12-2.77-7.95ZM457.27,423.44c-97.32,0-141.79-18.07-172.9-30.11-31.11-12.03-29.44-47.21-29.44-47.21l.49-30.87,57.44,5.69-57.27-15.98.25-15.81,73.47,17.56-73.26-30.77.49-30.98,146.99,55.34c40.16,16.59,75.19,17.25,104.44,0l139.67-55.36v21.46l-121.67,47.02,121.67-26.75v23.63l-94.98,24.39,94.98-8.66v17.18l-75.05,19.01,75.28-6.42c-.04,4.36-.41,9.42-1.71,12.15-.47,1.23-1.11,2.46-1.9,3.7l-57.52,7.09,48.45,2.46c-27.09,21.61-97.14,42.23-177.91,42.23Z"/>
    </g>
  </g>
</svg>
